<?xml version="1.0" standalone="no"?>
<!DOCTYPE svg PUBLIC "-//W3C//DTD SVG 20010904//EN"
 "http://www.w3.org/TR/2001/REC-SVG-20010904/DTD/svg10.dtd">
<svg version="1.0" xmlns="http://www.w3.org/2000/svg"
 width="103.000000pt" height="35.000000pt" viewBox="0 0 103.000000 35.000000"
 preserveAspectRatio="xMidYMid meet">
<metadata>
Created by potrace 1.10, written by Peter Selinger 2001-2011
</metadata>
<g transform="translate(0.000000,35.000000) scale(0.100000,-0.100000)"
fill="#000000" stroke="none">
<path d="M132 222 l-53 -47 3 -65 3 -65 94 -3 c114 -3 123 2 119 71 -4 70 -26
74 -30 5 l-3 -53 -80 0 -80 0 -3 45 c-3 42 0 48 42 89 43 42 46 44 64 28 20
-18 42 -23 42 -9 0 11 -44 52 -56 52 -5 0 -33 -22 -62 -48z"/>
<path d="M230 185 c-51 -52 -55 -54 -72 -38 -26 23 -43 4 -22 -25 35 -51 49
-47 109 27 52 66 65 91 47 91 -4 0 -32 -25 -62 -55z"/>
<path d="M344 185 c-19 -29 -14 -39 34 -64 31 -16 34 -21 19 -26 -9 -4 -24 -2
-33 5 -21 19 -43 -3 -24 -25 30 -36 110 -1 95 43 -3 11 -19 25 -35 31 -17 5
-30 15 -30 20 0 15 27 14 32 -1 3 -8 9 -8 22 -1 17 9 17 11 1 26 -24 25 -62
21 -81 -8z"/>
<path d="M447 203 c-13 -12 -7 -23 13 -23 11 0 20 7 20 15 0 15 -21 21 -33 8z"/>
<path d="M770 135 c0 -60 3 -75 15 -75 12 0 15 15 15 75 0 60 -3 75 -15 75
-12 0 -15 -15 -15 -75z"/>
<path d="M450 115 c0 -42 3 -55 15 -55 12 0 15 13 15 55 0 42 -3 55 -15 55
-12 0 -15 -13 -15 -55z"/>
<path d="M490 115 c0 -42 3 -55 15 -55 9 0 15 9 15 24 0 13 3 31 6 40 11 29
24 16 24 -24 0 -33 3 -40 20 -40 17 0 20 7 20 40 0 40 13 53 24 24 3 -9 6 -27
6 -40 0 -15 6 -24 15 -24 19 0 21 83 3 97 -7 6 -43 11 -80 12 l-68 1 0 -55z"/>
<path d="M662 118 l3 -53 48 -2 47 -2 0 55 c0 47 -2 54 -20 54 -17 0 -20 -7
-20 -41 0 -52 -24 -48 -28 4 -2 25 -8 37 -18 37 -12 0 -14 -11 -12 -52z"/>
<path d="M817 163 c-4 -3 -7 -28 -7 -55 0 -41 3 -48 20 -48 15 0 20 7 20 28
l0 27 13 -25 c24 -48 97 -33 97 20 0 56 -64 82 -94 38 l-16 -22 0 22 c0 21
-19 30 -33 15z m110 -39 c8 -21 -13 -42 -28 -27 -13 13 -5 43 11 43 6 0 13 -7
17 -16z"/>
</g>
</svg>
